<?xml version="1.0" encoding="UTF-8"?>
<svg id="Layer_1" data-name="Layer 1" xmlns="http://www.w3.org/2000/svg" viewBox="0 0 3779.55 2015.37">
  <defs>
    <style>
      .cls-1 {
        fill: #f7f3f3;
      }

      .cls-2, .cls-3 {
        fill: #f9dc5c;
      }

      .cls-4, .cls-5 {
        fill: #e84855;
      }

      .cls-6, .cls-7 {
        fill: #3185fc;
      }

      .cls-8, .cls-9 {
        fill: #30fc9a;
      }

      .cls-9, .cls-7, .cls-5, .cls-3, .cls-10 {
        stroke: #252525;
        stroke-miterlimit: 10;
        stroke-width: 76px;
      }

      .cls-10 {
        fill: #403f4c;
      }
    </style>
  </defs>
  <g>
    <g>
      <rect class="cls-5" x="38" y="562.41" width="1143" height="301.4" rx="150.7" ry="150.7"/>
      <rect class="cls-3" x="38" y="901.48" width="783" height="301.4" rx="150.7" ry="150.7"/>
      <rect class="cls-7" x="38" y="1233.01" width="1143" height="301.4" rx="150.7" ry="150.7"/>
      <rect class="cls-9" x="857.5" y="899.71" width="301.4" height="301.4" rx="150.7" ry="150.7"/>
    </g>
    <g>
      <path class="cls-10" d="m1231.03,572.41h65.5l154,236v-236h68.5v359h-66l-153.5-235.5v235.5h-68.5v-359Z"/>
      <path class="cls-10" d="m1859.53,798.41c0,77-59.5,140-140.5,140s-138-61.5-138-139.5,65-140,137.5-140c77.5,0,141,61,141,139.5Zm-211.5,0c0,45,28.5,77,71.5,77s73-30,73-76.5-29.5-77-73-77-71.5,32.5-71.5,76.5Z"/>
      <path class="cls-10" d="m2110.03,903.41c-23.5,23-48.5,35-82,35-67.5,0-126.5-58-126.5-139.5s56-140,125-140c32,0,59.5,12,83.5,36v-29h66.5v265.5h-66.5v-28Zm-141.5-105c0,45.5,30,79,71.5,79s73-31,73-79.5-31-78-73-78-71.5,35-71.5,78.5Z"/>
      <path class="cls-10" d="m2244.02,563.41h66.5v129.5c25.5-22,50-34,78.5-34,50,0,91,32.5,91,97v175.5h-66.5v-125.5c0-54-6.5-86-45.5-86-18.5,0-34.5,9.5-45,26-13.5,21-12.5,45-12.5,72.5v113h-66.5v-368Z"/>
      <path class="cls-10" d="m1232.53,1172.41h178v67h-111.5v64h111.5v67h-111.5v161h-66.5v-359Z"/>
      <path class="cls-10" d="m1729.53,1398.41c0,77-59.5,140-140.5,140s-138-61.5-138-139.5,65-140,137.5-140c77.5,0,141,61,141,139.5Zm-211.5,0c0,45,28.5,77,71.5,77s73-30,73-76.5-29.5-77-73-77-71.5,32.5-71.5,76.5Z"/>
      <path class="cls-10" d="m1850.03,1292.91c25.5-21.5,49-34,78.5-34,49.5,0,91,34,91,91v181.5h-66.5v-125.5c0-52.5-4.5-86-45-86-18.5,0-34.5,9-45,25.5-13.5,21.5-13,45.5-13,73v113h-66.5v-265.5h66.5v27Z"/>
      <path class="cls-10" d="m2091.52,1167.91h66.5v98h39.5v57h-39.5v208.5h-66.5v-208.5h-34v-57h34v-98Z"/>
      <path class="cls-10" d="m2482.52,1479.91c-28.5,40.5-66,58.5-122,58.5-84.5,0-139-62-139-140,0-72.5,52.5-139.5,138-139.5s141,60,141,144c0,6-.5,9-.5,15h-214c6.5,39.5,36.5,61.5,74.5,61.5,28.5,0,47.5-8,66-26l56,26.5Zm-49-114.5c-9-31-37.5-50-73-50-33,0-58.5,16.5-71.5,50h144.5Z"/>
      <path class="cls-10" d="m2620.02,1292.91c25.5-21.5,49-34,78.5-34,49.5,0,91,34,91,91v181.5h-66.5v-125.5c0-52.5-4.5-86-45-86-18.5,0-34.5,9-45,25.5-13.5,21.5-13,45.5-13,73v113h-66.5v-265.5h66.5v27Z"/>
      <path class="cls-10" d="m3102.51,1479.91c-28.5,40.5-66,58.5-122,58.5-84.5,0-139-62-139-140,0-72.5,52.5-139.5,138-139.5s141,60,141,144c0,6-.5,9-.5,15h-214c6.5,39.5,36.5,61.5,74.5,61.5,28.5,0,47.5-8,66-26l56,26.5Zm-49-114.5c-9-31-37.5-50-73-50-33,0-58.5,16.5-71.5,50h144.5Z"/>
      <path class="cls-10" d="m3181.51,1167.91h66.5v98h39.5v57h-39.5v208.5h-66.5v-208.5h-34v-57h34v-98Z"/>
      <path class="cls-10" d="m3331.51,1167.91h66.5v98h39.5v57h-39.5v208.5h-66.5v-208.5h-34v-57h34v-98Z"/>
      <path class="cls-10" d="m3722.5,1479.91c-28.5,40.5-66,58.5-122,58.5-84.5,0-139-62-139-140,0-72.5,52.5-139.5,138-139.5s141,60,141,144c0,6-.5,9-.5,15h-214c6.5,39.5,36.5,61.5,74.5,61.5,28.5,0,47.5-8,66-26l56,26.5Zm-49-114.5c-9-31-37.5-50-73-50-33,0-58.5,16.5-71.5,50h144.5Z"/>
    </g>
  </g>
  <g>
    <g>
      <rect class="cls-4" x="36.81" y="561.41" width="1143" height="301.4" rx="150.7" ry="150.7"/>
      <rect class="cls-2" x="36.81" y="900.48" width="783" height="301.4" rx="150.7" ry="150.7"/>
      <rect class="cls-6" x="36.81" y="1232.01" width="1143" height="301.4" rx="150.7" ry="150.7"/>
      <rect class="cls-8" x="856.31" y="898.71" width="301.4" height="301.4" rx="150.7" ry="150.7"/>
    </g>
    <g>
      <path class="cls-1" d="m1229.84,571.41h65.5l154,236v-236h68.5v359h-66l-153.5-235.5v235.5h-68.5v-359Z"/>
      <path class="cls-1" d="m1858.33,797.41c0,77-59.5,140-140.5,140s-138-61.5-138-139.5,65-140,137.5-140c77.5,0,141,61,141,139.5Zm-211.5,0c0,45,28.5,77,71.5,77s73-30,73-76.5-29.5-77-73-77-71.5,32.5-71.5,76.5Z"/>
      <path class="cls-1" d="m2108.83,902.41c-23.5,23-48.5,35-82,35-67.5,0-126.5-58-126.5-139.5s56-140,125-140c32,0,59.5,12,83.5,36v-29h66.5v265.5h-66.5v-28Zm-141.5-105c0,45.5,30,79,71.5,79s73-31,73-79.5-31-78-73-78-71.5,35-71.5,78.5Z"/>
      <path class="cls-1" d="m2242.83,562.41h66.5v129.5c25.5-22,50-34,78.5-34,50,0,91,32.5,91,97v175.5h-66.5v-125.5c0-54-6.5-86-45.5-86-18.5,0-34.5,9.5-45,26-13.5,21-12.5,45-12.5,72.5v113h-66.5v-368Z"/>
      <path class="cls-1" d="m1231.34,1171.41h178v67h-111.5v64h111.5v67h-111.5v161h-66.5v-359Z"/>
      <path class="cls-1" d="m1728.34,1397.41c0,77-59.5,140-140.5,140s-138-61.5-138-139.5,65-140,137.5-140c77.5,0,141,61,141,139.5Zm-211.5,0c0,45,28.5,77,71.5,77s73-30,73-76.5-29.5-77-73-77-71.5,32.5-71.5,76.5Z"/>
      <path class="cls-1" d="m1848.84,1291.91c25.5-21.5,49-34,78.5-34,49.5,0,91,34,91,91v181.5h-66.5v-125.5c0-52.5-4.5-86-45-86-18.5,0-34.5,9-45,25.5-13.5,21.5-13,45.5-13,73v113h-66.5v-265.5h66.5v27Z"/>
      <path class="cls-1" d="m2090.33,1166.91h66.5v98h39.5v57h-39.5v208.5h-66.5v-208.5h-34v-57h34v-98Z"/>
      <path class="cls-1" d="m2481.33,1478.91c-28.5,40.5-66,58.5-122,58.5-84.5,0-139-62-139-140,0-72.5,52.5-139.5,138-139.5s141,60,141,144c0,6-.5,9-.5,15h-214c6.5,39.5,36.5,61.5,74.5,61.5,28.5,0,47.5-8,66-26l56,26.5Zm-49-114.5c-9-31-37.5-50-73-50-33,0-58.5,16.5-71.5,50h144.5Z"/>
      <path class="cls-1" d="m2618.83,1291.91c25.5-21.5,49-34,78.5-34,49.5,0,91,34,91,91v181.5h-66.5v-125.5c0-52.5-4.5-86-45-86-18.5,0-34.5,9-45,25.5-13.5,21.5-13,45.5-13,73v113h-66.5v-265.5h66.5v27Z"/>
      <path class="cls-1" d="m3101.32,1478.91c-28.5,40.5-66,58.5-122,58.5-84.5,0-139-62-139-140,0-72.5,52.5-139.5,138-139.5s141,60,141,144c0,6-.5,9-.5,15h-214c6.5,39.5,36.5,61.5,74.5,61.5,28.5,0,47.5-8,66-26l56,26.5Zm-49-114.5c-9-31-37.5-50-73-50-33,0-58.5,16.5-71.5,50h144.5Z"/>
      <path class="cls-1" d="m3180.32,1166.91h66.5v98h39.5v57h-39.5v208.5h-66.5v-208.5h-34v-57h34v-98Z"/>
      <path class="cls-1" d="m3330.31,1166.91h66.5v98h39.5v57h-39.5v208.5h-66.5v-208.5h-34v-57h34v-98Z"/>
      <path class="cls-1" d="m3721.31,1478.91c-28.5,40.5-66,58.5-122,58.5-84.5,0-139-62-139-140,0-72.5,52.5-139.5,138-139.5s141,60,141,144c0,6-.5,9-.5,15h-214c6.5,39.5,36.5,61.5,74.5,61.5,28.5,0,47.5-8,66-26l56,26.5Zm-49-114.5c-9-31-37.5-50-73-50-33,0-58.5,16.5-71.5,50h144.5Z"/>
    </g>
  </g>
</svg>