<?xml version="1.0" encoding="UTF-8"?>
<svg id="Layer_1" data-name="Layer 1" xmlns="http://www.w3.org/2000/svg" viewBox="0 0 3779.55 2015.37">
  <defs>
    <style>
      .cls-1 {
        fill: #fb3640;
      }

      .cls-2 {
        fill: #f5f3f6;
      }

      .cls-3 {
        fill: #738290;
      }

      .cls-4 {
        fill: #151515;
      }
    </style>
  </defs>
  <g>
    <path class="cls-2" d="m1467.78,854.81c-77.58,0-140.7-63.12-140.7-140.7s63.12-140.7,140.7-140.7h841.6c77.58,0,140.7,63.12,140.7,140.7s-63.12,140.7-140.7,140.7h-841.6Z"/>
    <path class="cls-4" d="m2309.39,583.41c34.91,0,67.73,13.59,92.42,38.28,24.69,24.69,38.28,57.51,38.28,92.42s-13.59,67.73-38.28,92.42c-24.69,24.69-57.51,38.28-92.42,38.28h-841.6c-34.91,0-67.73-13.59-92.42-38.28-24.69-24.69-38.28-57.51-38.28-92.42s13.59-67.73,38.28-92.42c24.69-24.69,57.51-38.28,92.42-38.28h841.6m0-20h-841.6c-83.23,0-150.7,67.47-150.7,150.7h0c0,83.23,67.47,150.7,150.7,150.7h841.6c83.23,0,150.7-67.47,150.7-150.7h0c0-83.23-67.47-150.7-150.7-150.7h0Z"/>
  </g>
  <g>
    <path class="cls-3" d="m1467.78,1193.87c-77.58,0-140.7-63.12-140.7-140.7s63.12-140.7,140.7-140.7h481.6c77.58,0,140.7,63.12,140.7,140.7s-63.12,140.7-140.7,140.7h-481.6Z"/>
    <path class="cls-4" d="m1949.39,922.48c34.91,0,67.73,13.59,92.42,38.28,24.69,24.69,38.28,57.51,38.28,92.42s-13.59,67.73-38.28,92.42c-24.69,24.69-57.51,38.28-92.42,38.28h-481.6c-34.91,0-67.73-13.59-92.42-38.28-24.69-24.69-38.28-57.51-38.28-92.42s13.59-67.73,38.28-92.42c24.69-24.69,57.51-38.28,92.42-38.28h481.6m0-20h-481.6c-83.23,0-150.7,67.47-150.7,150.7h0c0,83.23,67.47,150.7,150.7,150.7h481.6c83.23,0,150.7-67.47,150.7-150.7h0c0-83.23-67.47-150.7-150.7-150.7h0Z"/>
  </g>
  <g>
    <path class="cls-2" d="m1467.78,1525.41c-77.58,0-140.7-63.12-140.7-140.7s63.12-140.7,140.7-140.7h841.6c77.58,0,140.7,63.12,140.7,140.7s-63.12,140.7-140.7,140.7h-841.6Z"/>
    <path class="cls-4" d="m2309.39,1254.01c34.91,0,67.73,13.6,92.42,38.28,24.69,24.69,38.28,57.51,38.28,92.42s-13.59,67.73-38.28,92.42c-24.69,24.69-57.51,38.28-92.42,38.28h-841.6c-34.91,0-67.73-13.59-92.42-38.28-24.69-24.69-38.28-57.51-38.28-92.42s13.59-67.73,38.28-92.42c24.69-24.69,57.51-38.28,92.42-38.28h841.6m0-20h-841.6c-83.23,0-150.7,67.47-150.7,150.7h0c0,83.23,67.47,150.7,150.7,150.7h841.6c83.23,0,150.7-67.47,150.7-150.7h0c0-83.23-67.47-150.7-150.7-150.7h0Z"/>
  </g>
  <g>
    <circle class="cls-1" cx="2287.28" cy="1051.41" r="140.7" transform="translate(618.17 2935.87) rotate(-73.15)"/>
    <path class="cls-4" d="m2287.28,920.71c34.91,0,67.73,13.59,92.42,38.28s38.28,57.51,38.28,92.42-13.59,67.73-38.28,92.42-57.51,38.28-92.42,38.28-67.73-13.59-92.42-38.28-38.28-57.51-38.28-92.42,13.59-67.73,38.28-92.42,57.51-38.28,92.42-38.28m0-20h0c-83.23,0-150.7,67.47-150.7,150.7h0c0,83.23,67.47,150.7,150.7,150.7h0c83.23,0,150.7-67.47,150.7-150.7h0c0-83.23-67.47-150.7-150.7-150.7h0Z"/>
  </g>
</svg>